<svg width="24" height="21" viewBox="0 0 24 21" fill="none" xmlns="http://www.w3.org/2000/svg">
<path d="M21.4487 2.81497L21.4487 2.81492C20.3514 1.59743 18.8271 0.925 17.1562 0.925C14.807 0.925 13.3177 2.29807 12.4851 3.4468C12.2985 3.70228 12.1375 3.95771 11.9995 4.20501C11.8609 3.95995 11.6976 3.70209 11.5153 3.44738L11.515 3.44704C10.6825 2.29826 9.19318 0.925 6.84375 0.925C5.17291 0.925 3.64862 1.59743 2.55132 2.81492L2.55128 2.81497C1.50257 3.9806 0.925 5.53627 0.925 7.19611C0.925 9.00856 1.64844 10.6887 3.19038 12.4833C4.56607 14.0854 6.54394 15.7323 8.82819 17.6338C8.94801 17.7338 9.06842 17.8342 9.18948 17.9351C9.92819 18.551 10.6913 19.1873 11.4957 19.8763L11.4964 19.8769L11.5253 19.9011C11.5255 19.9012 11.5257 19.9014 11.5259 19.9016C11.6612 20.0194 11.8337 20.075 12 20.075C12.1663 20.075 12.3388 20.0194 12.4741 19.9016C12.4743 19.9014 12.4745 19.9012 12.4747 19.9011L12.5036 19.8769L12.5043 19.8763C13.3086 19.1874 14.0716 18.5512 14.8102 17.9354C14.9314 17.8343 15.0519 17.7339 15.1718 17.6338C17.4561 15.7323 19.4339 14.0854 20.8096 12.4833C22.3516 10.6887 23.075 9.00856 23.075 7.19611C23.075 5.53627 22.4974 3.9806 21.4487 2.81497ZM14.2379 16.5608L14.2379 16.5608C14.0723 16.6991 13.9055 16.838 13.7374 16.978C13.1754 17.4462 12.5985 17.9268 12 18.4355C11.2225 17.7745 10.4818 17.1574 9.76193 16.5607C7.52382 14.6963 5.67297 13.1536 4.38066 11.6736C3.0895 10.1949 2.36406 8.78787 2.36406 7.19611C2.36406 5.87713 2.81374 4.65216 3.62942 3.75143L3.62963 3.75119C4.44866 2.83904 5.59266 2.33523 6.84375 2.33523C8.57568 2.33523 9.69895 3.3766 10.3408 4.2618C10.9147 5.05558 11.2168 5.85418 11.3186 6.16102C11.415 6.4532 11.6937 6.6494 12.0043 6.6494C12.3149 6.6494 12.5936 6.4532 12.69 6.16102C12.7918 5.85416 13.0939 5.05553 13.6678 4.26172L13.668 4.26142C14.3011 3.37664 15.4243 2.33523 17.1562 2.33523C18.4073 2.33523 19.5513 2.83904 20.3704 3.75119L20.3705 3.7513C21.1863 4.65635 21.6359 5.87723 21.6359 7.19611C21.6359 8.78787 20.9105 10.1949 19.6193 11.6736C18.327 13.1536 16.4761 14.6964 14.2379 16.5608Z" fill="#06243E" stroke="#06243E" stroke-width="0.15"/>
</svg>
