<svg width="23" height="22" viewBox="0 0 23 22" fill="none" xmlns="http://www.w3.org/2000/svg">
<path d="M8.38867 16.8424V21.2765C8.38867 21.5858 8.58633 21.8593 8.88281 21.958C8.95469 21.9804 9.03105 21.9938 9.10742 21.9938C9.33203 21.9938 9.54766 21.8907 9.68692 21.7024L12.2879 18.1695L8.38867 16.8424Z" fill="white"/>
<path d="M22.7005 0.132875C22.4804 -0.024044 22.1929 -0.0419776 21.9503 0.079074L0.387794 11.3189C0.13174 11.4534 -0.0165025 11.7224 0.00146628 12.0094C0.0239272 12.2963 0.212599 12.5429 0.486623 12.6326L6.4792 14.677L19.246 3.78235L9.36768 15.6633L19.4122 19.0887C19.4886 19.1156 19.5649 19.129 19.6458 19.129C19.7761 19.129 19.9063 19.0931 20.0187 19.0259C20.2028 18.9138 20.3241 18.73 20.3556 18.5193L22.9925 0.823317C23.0329 0.554313 22.9206 0.289793 22.7005 0.132875Z" fill="white"/>
</svg>
