<svg width="14" height="14" viewBox="0 0 14 14" fill="none" xmlns="http://www.w3.org/2000/svg">
<path d="M7.33398 0.667969C3.65834 0.667969 0.667969 3.65834 0.667969 7.33398C0.667969 11.0096 3.65834 14 7.33398 14C11.0096 14 14 11.0096 14 7.33398C14 3.65834 11.0096 0.667969 7.33398 0.667969ZM7.33398 12.9745C4.22383 12.9745 1.69351 10.4441 1.69351 7.33398C1.69351 4.22383 4.22383 1.69351 7.33398 1.69351C10.4441 1.69351 12.9745 4.22383 12.9745 7.33398C12.9745 10.4441 10.4441 12.9745 7.33398 12.9745Z" fill="#2767A5"/>
<path d="M8.87218 5.79052C8.87218 6.07371 9.10177 6.3033 9.38495 6.3033C9.66814 6.3033 9.89772 6.07371 9.89772 5.79052C9.89772 5.22265 9.60401 4.67665 9.09185 4.29255C8.74204 4.03018 8.31162 3.85492 7.84664 3.78036V3.22664C7.84664 2.94345 7.61706 2.71387 7.33387 2.71387C7.05069 2.71387 6.8211 2.94345 6.8211 3.22664V3.78036C6.35609 3.85492 5.92567 4.03018 5.57589 4.29255C5.06373 4.67665 4.77002 5.22265 4.77002 5.79052C4.77002 6.3584 5.06373 6.90436 5.57589 7.2885C5.9257 7.55087 6.35612 7.72613 6.8211 7.80069V9.83157C6.23039 9.6872 5.79556 9.30386 5.79556 8.86715C5.79556 8.58396 5.56598 8.35438 5.28279 8.35438C4.9996 8.35438 4.77002 8.58396 4.77002 8.86715C4.77002 9.43502 5.06373 9.98099 5.57589 10.3651C5.9257 10.6275 6.35612 10.8028 6.8211 10.8773V11.4362C6.8211 11.7194 7.05069 11.949 7.33387 11.949C7.61706 11.949 7.84664 11.7194 7.84664 11.4362V10.8773C8.31166 10.8028 8.74208 10.6275 9.09185 10.3651C9.60401 9.98102 9.89772 9.43502 9.89772 8.86715C9.89772 8.29927 9.60401 7.75327 9.09185 7.36917C8.74204 7.10681 8.31162 6.93154 7.84664 6.85698V4.82611C8.43735 4.9705 8.87218 5.35382 8.87218 5.79052ZM5.79556 5.79052C5.79556 5.35382 6.23039 4.97047 6.8211 4.82611V6.75491C6.23039 6.61058 5.79556 6.22723 5.79556 5.79052ZM8.87218 8.86715C8.87218 9.30386 8.43735 9.6872 7.84664 9.83157V7.90276C8.43735 8.04712 8.87218 8.43044 8.87218 8.86715Z" fill="#2767A5"/>
</svg>
